<svg xmlns="http://www.w3.org/2000/svg" width="128" height="128" viewBox="0 0 128 128" version="1.1">
  <path d="M 50.629 45.746 C 41.950 48.637, 33.971 57.635, 30.561 68.378 C 30.081 69.888, 29.300 70.148, 26.578 69.706 C 18.433 68.385, 10 76.871, 10 86.388 C 10 93.895, 13.816 99.354, 21.232 102.452 C 24.352 103.756, 30.859 104, 62.525 104 C 87.866 104, 101.625 103.620, 104.751 102.832 C 114.018 100.499, 120.960 90.195, 119.682 80.668 C 118.893 74.783, 114.222 68.041, 109 65.250 C 105.286 63.264, 103.453 62.919, 98.500 63.275 C 95.200 63.513, 91.789 64.016, 90.921 64.395 C 89.744 64.908, 88.868 64.034, 87.485 60.968 C 84.990 55.433, 77.129 48.566, 70.414 46.054 C 63.908 43.619, 57.321 43.517, 50.629 45.746 M 40.704 113.242 C 37.030 119.511, 36.465 122.535, 38.413 125.507 C 41.646 130.442, 50 127.846, 50 121.906 C 50 119.412, 46.807 112.549, 44.542 110.175 C 43.506 109.088, 42.814 109.641, 40.704 113.242 M 77.859 115.495 C 74.672 121.657, 74.579 122.131, 76.031 124.745 C 77.188 126.826, 78.442 127.574, 81.157 127.803 C 88.284 128.404, 90.042 122.431, 85.250 113.898 C 83.737 111.205, 82.212 109.002, 81.859 109.001 C 81.507 109, 79.707 111.923, 77.859 115.495" stroke="none" fill="#20a0b8" fill-rule="evenodd"/>
  <path d="M 40 2.351 C 40 6.625, 42.073 11, 44.098 11 C 46.274 11, 46.478 9.261, 44.947 3.750 C 44.198 1.052, 43.358 0, 41.953 0 C 40.570 0, 40 0.686, 40 2.351 M 62.022 2.441 C 61.512 3.784, 60.960 6.147, 60.797 7.691 C 60.560 9.931, 60.905 10.500, 62.496 10.500 C 63.933 10.500, 64.852 9.400, 65.781 6.563 C 66.490 4.398, 66.844 2.036, 66.567 1.313 C 65.737 -0.849, 63.016 -0.173, 62.022 2.441 M 20.303 12.654 C 19.478 14.803, 26.262 21.220, 28.466 20.375 C 30.821 19.471, 30.315 17.697, 26.702 14.196 C 23.021 10.628, 21.244 10.200, 20.303 12.654 M 80.196 14.298 C 76.840 17.760, 76.277 19.435, 78.090 20.556 C 79.572 21.472, 86.977 14.105, 86.314 12.375 C 85.471 10.179, 83.626 10.759, 80.196 14.298 M 46.500 14.880 C 34.453 18.061, 25.343 28.460, 23.484 41.153 C 22.656 46.799, 24.918 55.408, 28.750 61.198 L 31.378 65.170 33.638 60.724 C 38.486 51.184, 50.070 44, 60.604 44 C 65.850 44, 73.840 46.878, 78.532 50.457 L 81.947 53.061 82.588 50.505 C 82.941 49.099, 83.047 45.148, 82.823 41.724 C 82.103 30.713, 75.472 21.308, 65.236 16.780 C 60.254 14.577, 51.146 13.653, 46.500 14.880 M 10.230 30.757 C 9.553 30.982, 9 31.976, 9 32.965 C 9 34.258, 10.248 35.077, 13.443 35.881 C 19.547 37.418, 20.186 37.316, 19.820 34.855 C 19.592 33.325, 18.348 32.371, 15.480 31.528 C 13.269 30.878, 10.906 30.531, 10.230 30.757 M 90.750 31.637 C 87.825 32.514, 86 33.637, 86 34.562 C 86 36.779, 88.280 37.271, 92.853 36.040 C 97.545 34.776, 98.809 33.351, 96.868 31.511 C 95.746 30.447, 94.645 30.470, 90.750 31.637 M 13 52.403 C 9.391 53.717, 7.815 56.608, 10.208 57.526 C 12.687 58.478, 19.500 55.462, 19.500 53.413 C 19.500 51.065, 17.521 50.757, 13 52.403 M 86.411 52.372 C 85.509 54.721, 86.562 55.652, 91.534 56.904 C 96.409 58.132, 98 57.766, 98 55.416 C 98 53.881, 95.701 52.734, 90.249 51.548 C 87.788 51.012, 86.856 51.213, 86.411 52.372 M 25.500 69 C 25.148 69.569, 26.009 70, 27.500 70 C 28.991 70, 29.852 69.569, 29.500 69 C 29.160 68.450, 28.260 68, 27.500 68 C 26.740 68, 25.840 68.450, 25.500 69" stroke="none" fill="#f8b309" fill-rule="evenodd"/>
</svg>