<svg xmlns="http://www.w3.org/2000/svg" width="512" height="512" viewBox="0 0 512 512" version="1.1">
  <path d="M 312 112.876 C 289.188 117.898, 268.702 131.077, 255.122 149.465 L 252.194 153.430 259.561 157.629 C 263.613 159.939, 269.532 163.834, 272.714 166.285 C 279.720 171.682, 292.399 184.813, 296.849 191.281 C 298.635 193.877, 300.251 196, 300.441 196 C 300.631 196, 304.322 195.267, 308.643 194.372 C 318.325 192.366, 333.291 192.974, 343.500 195.788 C 367.107 202.295, 384.295 216.510, 395.446 238.750 C 397.445 242.737, 399.701 246, 400.458 246 C 401.215 246, 403.837 246.858, 406.285 247.908 L 410.735 249.816 412.759 246.158 C 415.942 240.404, 419.743 228.949, 421.443 219.989 C 425.560 198.283, 421.042 174.744, 408.831 154.282 C 404.133 146.411, 391.045 132.848, 382.960 127.474 C 366.997 116.861, 352.102 112.078, 333 111.429 C 323.262 111.098, 318.622 111.418, 312 112.876" stroke="none" fill="#fed258" fill-rule="evenodd"/>
  <path d="M 0 256.002 L 0 512.004 256.250 511.752 L 512.500 511.500 512.752 255.750 L 513.004 0 256.502 0 L 0 0 0 256.002 M 0.492 256.500 C 0.492 397.300, 0.608 454.751, 0.750 384.170 C 0.892 313.588, 0.892 198.388, 0.750 128.170 C 0.608 57.951, 0.492 115.700, 0.492 256.500 M 312 112.876 C 289.168 117.902, 269.815 130.241, 255.765 148.729 C 252.274 153.323, 251.545 153.827, 249.770 152.877 C 240.268 147.792, 220.761 143.828, 205.092 143.798 C 169.691 143.731, 137.240 159.918, 115.292 188.592 C 103.810 203.593, 94 230.539, 94 247.079 C 94 251.826, 93.871 252.032, 88.324 256.130 C 79.579 262.590, 75.211 266.845, 70.389 273.603 C 55.950 293.838, 52.387 319.079, 60.676 342.405 C 66.841 359.750, 80.917 375.510, 97.415 383.536 C 115.713 392.437, 106.751 391.954, 254 391.978 C 390.562 392.001, 390.123 392.014, 403 387.549 C 432.573 377.295, 453.017 348.686, 452.993 317.590 C 452.985 307.736, 450.589 295.828, 446.939 287.500 C 441.256 274.536, 429.497 261.133, 417.085 253.472 C 411.066 249.756, 410.117 248.664, 411.934 247.541 C 413.630 246.493, 419.205 230.662, 421.106 221.500 C 425.727 199.231, 421.348 175.257, 408.831 154.282 C 404.133 146.411, 391.045 132.848, 382.960 127.474 C 366.997 116.861, 352.102 112.078, 333 111.429 C 323.262 111.098, 318.622 111.418, 312 112.876" stroke="none" fill="#58c6f6" fill-rule="evenodd"/>
  <path d="M 198.500 143.706 C 165.530 145.964, 135.535 162.145, 115.292 188.592 C 103.810 203.593, 94 230.539, 94 247.079 C 94 251.826, 93.871 252.032, 88.324 256.130 C 79.579 262.590, 75.211 266.845, 70.389 273.603 C 55.950 293.838, 52.387 319.079, 60.676 342.405 C 66.841 359.750, 80.917 375.510, 97.415 383.536 C 115.713 392.437, 106.751 391.954, 254 391.978 C 390.562 392.001, 390.123 392.014, 403 387.549 C 432.573 377.295, 453.017 348.686, 452.993 317.590 C 452.974 293.005, 441.467 270.741, 421.346 256.360 C 415.106 251.900, 403.270 246, 400.563 246 C 399.725 246, 397.502 242.851, 395.446 238.750 C 384.295 216.510, 367.107 202.295, 343.500 195.788 C 333.291 192.974, 318.325 192.366, 308.643 194.372 C 304.322 195.267, 300.631 196, 300.441 196 C 300.251 196, 298.626 193.862, 296.829 191.250 C 292.031 184.274, 278.652 170.673, 271.028 165.021 C 251.364 150.443, 222.782 142.043, 198.500 143.706" stroke="none" fill="#fbf6e5" fill-rule="evenodd"/>
</svg>